<svg id="Capa_1" enable-background="new 0 0 512 512" height="512" viewBox="0 0 512 512" width="512" xmlns="http://www.w3.org/2000/svg"><g><g><g><g><path d="m0 61.811v-30.187c0-17.466 14.158-31.624 31.624-31.624h184.854l42.536 15.453 36.508-15.453h184.854c17.466 0 31.624 14.158 31.624 31.624v30.187z" fill="#655e68"/><path d="m480.376 0h-30.905c17.465 0 31.624 14.158 31.624 31.624v30.187h30.905v-30.187c0-17.466-14.158-31.624-31.624-31.624z" fill="#544f57"/><path d="m316.126 39.147v-18.543c0-11.379-9.225-20.604-20.604-20.604h-79.045c-11.379 0-20.604 9.225-20.604 20.604v18.543c0 12.517-10.147 22.664-22.664 22.664h-173.209v419.284c0 17.068 13.837 30.905 30.905 30.905h450.189c17.069 0 30.906-13.837 30.906-30.905v-419.284h-173.21c-12.517 0-22.664-10.147-22.664-22.664z" fill="#f7f6f7"/><g><path d="m481.095 61.811v419.284c0 17.069-13.837 30.905-30.905 30.905h30.905c17.068 0 30.905-13.837 30.905-30.905v-419.284z" fill="#edebed"/></g></g><g><g><circle cx="30.905" cy="30.905" fill="#ff8086" r="7.726"/></g><g><circle cx="61.811" cy="30.905" fill="#ffe07d" r="7.726"/></g><g><circle cx="92.716" cy="30.905" fill="#b3e59f" r="7.726"/></g></g></g><path d="m313.187 133.458h-114.379c-3.727 0-6.85 2.84-7.174 6.552-2.745 31.446-29.664 56.072-61.229 55.972-4.012-.013-7.288 3.192-7.288 7.205v37.403c0 88.831 53.499 165.161 130.032 198.545 1.815.792 3.889.792 5.703 0 76.533-33.384 130.032-109.713 130.032-198.545v-37.408c0-4.011-3.274-7.22-7.286-7.204-31.786.12-58.528-24.35-61.236-55.957-.319-3.718-3.445-6.563-7.175-6.563z" fill="#ffc269"/><path d="m381.598 195.976c-31.786.12-58.527-24.349-61.236-55.957-.319-3.716-3.445-6.561-7.175-6.561h-46.358c3.73 0 6.857 2.845 7.175 6.561 2.709 31.608 29.45 56.076 61.236 55.957 4.011-.015 7.286 3.193 7.286 7.204v37.408c0 80.735-44.193 151.139-109.704 188.365 6.57 3.733 13.352 7.137 20.327 10.18 1.815.791 3.889.791 5.703 0 76.533-33.384 130.032-109.713 130.032-198.545v-37.408c-.001-4.011-3.275-7.219-7.286-7.204z" fill="#ffa95f"/><g><g><path d="m279.77 318.409h-47.54c-14.342 0-26.011-11.668-26.011-26.01v-58.21c0-27.449 22.331-49.781 49.78-49.781s49.78 22.332 49.78 49.781v58.21c.001 14.342-11.667 26.01-26.009 26.01zm-23.77-118.548c-18.928 0-34.327 15.399-34.327 34.328v58.21c0 5.821 4.736 10.557 10.558 10.557h47.539c5.821 0 10.558-4.736 10.558-10.557v-58.21c-.001-18.928-15.4-34.328-34.328-34.328z" fill="#fff"/></g><path d="m296.99 350.145h-81.98c-10.098 0-18.284-8.186-18.284-18.284v-47.539c0-10.098 8.186-18.284 18.284-18.284h81.98c10.098 0 18.284 8.186 18.284 18.284v47.539c0 10.098-8.186 18.284-18.284 18.284z" fill="#b3e59f"/><path d="m296.99 266.036h-30.905c10.098 0 18.284 8.187 18.284 18.285v47.539c0 10.099-8.186 18.285-18.284 18.285h30.905c10.098 0 18.284-8.186 18.284-18.285v-47.539c0-10.098-8.186-18.285-18.284-18.285z" fill="#95d6a4"/></g></g></g></svg>