<svg id="Capa_1" enable-background="new 0 0 511.968 511.968" height="512" viewBox="0 0 511.968 511.968" width="512" xmlns="http://www.w3.org/2000/svg"><g><g><path d="m472.423 241.223 28.67-59.356c8.822-18.264-.24-40.137-19.394-46.81l-62.225-21.681c-9.783-3.409-17.474-11.099-20.882-20.882l-21.68-62.224c-6.673-19.153-28.546-28.216-46.81-19.394l-59.356 28.67c-9.325 4.504-20.197 4.504-29.522 0l-59.356-28.67c-18.264-8.822-40.137.24-46.81 19.394l-21.681 62.225c-3.409 9.783-11.099 17.474-20.882 20.882l-62.224 21.68c-19.153 6.673-28.216 28.546-19.394 46.81l28.67 59.356c4.504 9.325 4.504 20.197 0 29.522l-28.67 59.357c-8.822 18.264.24 40.137 19.394 46.81l62.225 21.681c9.783 3.409 17.474 11.099 20.882 20.882l21.68 62.224c6.673 19.153 28.546 28.216 46.81 19.394l59.356-28.67c9.325-4.504 20.197-4.504 29.522 0l59.356 28.67c18.264 8.822 40.137-.24 46.81-19.394l21.681-62.225c3.409-9.783 11.099-17.474 20.882-20.882l62.224-21.68c19.153-6.673 28.216-28.546 19.394-46.81l-28.67-59.356c-4.505-9.326-4.505-20.198 0-29.523z" fill="#f9efaf"/><circle cx="255.984" cy="255.984" fill="#f6e266" r="157.427"/><path d="m275.517 412.214c-6.4.79-12.92 1.2-19.53 1.2-86.95 0-157.43-70.49-157.43-157.43 0-86.95 70.48-157.43 157.43-157.43 6.61 0 13.13.41 19.53 1.2-77.73 9.62-137.9 75.89-137.9 156.23 0 80.33 60.17 146.61 137.9 156.23z" fill="#ffc250"/></g><g><path d="m167.103 511.968c-5.384 0-10.774-1.047-15.852-3.15-10.906-4.518-19.392-13.504-23.279-24.655l-21.681-62.221c-2.672-7.664-8.601-13.593-16.268-16.266l-62.218-21.679c-11.152-3.888-20.139-12.374-24.656-23.28-4.516-10.902-4.162-23.249.97-33.874l28.67-59.36c3.538-7.309 3.538-15.687.003-22.99l-14.112-29.217c-1.801-3.73-.238-8.214 3.492-10.016 3.729-1.802 8.214-.239 10.016 3.491l14.109 29.21c5.542 11.451 5.542 24.593-.003 36.049l-28.667 59.354c-3.274 6.779-3.5 14.655-.619 21.611 2.883 6.959 8.618 12.375 15.734 14.855l62.219 21.679c12.015 4.189 21.307 13.481 25.494 25.494l21.681 62.221c2.481 7.116 7.896 12.851 14.855 15.733 6.955 2.88 14.834 2.654 21.609-.619l59.361-28.67c11.45-5.542 24.592-5.542 36.048.002l59.355 28.667c6.779 3.274 14.654 3.5 21.61.619 6.96-2.883 12.374-8.618 14.855-15.734l21.681-62.219c4.188-12.014 13.479-21.306 25.492-25.495l62.222-21.68c7.115-2.48 12.851-7.896 15.733-14.855 2.881-6.956 2.655-14.832-.619-21.611l-28.67-59.36c-5.542-11.451-5.542-24.592.003-36.049l28.667-59.354c3.274-6.779 3.5-14.655.619-21.611-2.883-6.959-8.618-12.375-15.734-14.855l-62.219-21.679c-12.015-4.189-21.307-13.481-25.494-25.494l-21.681-62.221c-2.481-7.116-7.896-12.851-14.855-15.733-6.956-2.881-14.834-2.655-21.609.619l-59.361 28.67c-11.45 5.542-24.592 5.542-36.048-.002l-59.355-28.667c-6.779-3.274-14.654-3.5-21.61-.619-6.96 2.883-12.374 8.618-14.855 15.734l-21.681 62.219c-4.188 12.014-13.479 21.306-25.492 25.495l-62.222 21.68c-7.115 2.48-12.851 7.896-15.733 14.855-2.881 6.956-2.655 14.832.619 21.611l1.928 3.985c1.805 3.729.244 8.214-3.484 10.018-3.729 1.806-8.213.245-10.018-3.484l-1.931-3.99c-5.135-10.63-5.488-22.977-.973-33.879 4.518-10.907 13.504-19.392 24.655-23.28l62.221-21.68c7.665-2.672 13.594-8.602 16.266-16.267l21.681-62.219c3.888-11.152 12.373-20.139 23.279-24.656 10.904-4.516 23.249-4.162 33.874.971l59.36 28.67c7.311 3.537 15.688 3.537 22.991.002l59.365-28.672c10.625-5.132 22.972-5.486 33.874-.971 10.906 4.518 19.392 13.504 23.279 24.655l21.681 62.221c2.672 7.664 8.601 13.593 16.268 16.266l62.218 21.679c11.152 3.888 20.139 12.374 24.656 23.28 4.516 10.902 4.162 23.249-.97 33.874l-28.67 59.36c-3.538 7.309-3.538 15.687-.003 22.99l28.673 59.366c5.132 10.625 5.485 22.972.97 33.874-4.518 10.907-13.504 19.392-24.655 23.28l-62.221 21.68c-7.665 2.672-13.594 8.602-16.266 16.267l-21.681 62.219c-3.888 11.152-12.373 20.139-23.279 24.656-10.904 4.516-23.249 4.162-33.874-.971l-59.36-28.67c-7.311-3.537-15.688-3.537-22.991-.002l-59.365 28.672c-5.676 2.744-11.845 4.123-18.022 4.123z"/><path d="m255.984 420.914c-90.942 0-164.93-73.987-164.93-164.93s73.987-164.93 164.93-164.93 164.93 73.987 164.93 164.93c0 41.825-15.68 81.707-44.149 112.299-2.822 3.032-7.565 3.203-10.6.381-3.032-2.822-3.203-7.567-.381-10.6 25.878-27.808 40.13-64.061 40.13-102.081 0-82.672-67.258-149.93-149.93-149.93s-149.93 67.258-149.93 149.93 67.258 149.93 149.93 149.93c32.072 0 62.665-9.984 88.471-28.873 3.342-2.445 8.036-1.721 10.481 1.623 2.447 3.342 1.721 8.035-1.622 10.482-28.394 20.784-62.05 31.769-97.33 31.769z"/><path d="m255.984 322.675c-25.037 0-47.857-15.707-56.787-39.084-1.478-3.87.461-8.205 4.331-9.683 3.87-1.48 8.204.462 9.682 4.331 6.726 17.606 23.915 29.436 42.774 29.436s36.049-11.83 42.774-29.436c1.478-3.869 5.81-5.812 9.682-4.331 3.87 1.478 5.809 5.813 4.331 9.683-8.93 23.378-31.75 39.084-56.787 39.084z"/><g><path d="m208.775 232.247c-1.919 0-3.839-.732-5.304-2.197-8.742-8.741-22.966-8.742-31.708 0-2.928 2.928-7.677 2.928-10.606 0-2.929-2.929-2.929-7.678.001-10.607 14.59-14.59 38.331-14.589 52.921 0 2.929 2.929 2.929 7.678 0 10.606-1.465 1.466-3.385 2.198-5.304 2.198z"/><path d="m303.193 232.247c-1.919 0-3.839-.732-5.304-2.197-2.929-2.929-2.929-7.678 0-10.606 14.589-14.589 38.33-14.59 52.921 0 2.93 2.929 2.93 7.678.001 10.607-2.93 2.929-7.679 2.929-10.606 0-8.744-8.743-22.97-8.741-31.708 0-1.465 1.464-3.385 2.196-5.304 2.196z"/></g></g></g></svg>