<svg height="512" viewBox="0 0 512 512" width="512" xmlns="http://www.w3.org/2000/svg"><g><g><g fill="#57a4ff"><path d="m392 469.33v26.67h-112v-26.67l56-93.33z"/><path d="m280 83.73v412.27h-26.48c-27.84-49.89-45.52-124.56-45.52-208 0-81.39 37.57-154.43 72-204.27z"/><path d="m464 288c0 83.44-17.68 158.11-45.52 208h-26.48v-412.27c34.43 49.84 72 122.88 72 204.27z"/><path d="m408 496h-144l16-26.67 56-93.33 56 93.33z"/><circle cx="96" cy="88" r="40"/></g><path d="m146.912 37.088-5.657 5.657" fill="none"/><path d="m50.745 133.255-5.657 5.657" fill="none"/><path d="m146.912 138.912-5.657-5.657" fill="none"/><path d="m50.745 42.745-5.657-5.657" fill="none"/></g><g fill="#004fac"><path d="m488 488h-8a8 8 0 0 0 0 16h8a8 8 0 0 0 0-16z"/><path d="m456 488h-24.32c25.72-52.32 40.32-124.24 40.32-200 0-79.56-35.51-150.88-65.29-196.69-32.15-49.44-63.86-79.84-65.2-81.11a7.987 7.987 0 0 0 -11.02 0c-1.34 1.27-33.05 31.67-65.2 81.11-29.78 45.81-65.29 117.13-65.29 196.69 0 75.76 14.6 147.68 40.32 200h-224.32a8 8 0 0 0 0 16h440a8 8 0 0 0 0-16zm-168-401.75a514.524 514.524 0 0 1 40-50.31v196.06a8 8 0 0 0 16 0v-196.07a514.514 514.514 0 0 1 40 50.32v354.2l-41.14-68.57a8 8 0 0 0 -13.72 0l-41.14 68.57zm-28.53 401.75h-1.2c-26.9-50.55-42.27-123.08-42.27-200 0-69.84 29.08-133.43 56-177.34v353.34a7.97 7.97 0 0 0 .39 2.46zm18.66 0 57.87-96.45 57.87 96.45zm135.6 0h-1.2l-12.92-21.54a7.97 7.97 0 0 0 .39-2.46v-353.34c26.96 43.98 56 107.54 56 177.34 0 76.92-15.37 149.45-42.27 200z"/><path d="m336 280a8 8 0 0 0 8-8v-8a8 8 0 0 0 -16 0v8a8 8 0 0 0 8 8z"/><path d="m96 136a48 48 0 1 0 -48-48 48.053 48.053 0 0 0 48 48zm0-80a32 32 0 1 1 -32 32 32.036 32.036 0 0 1 32-32z"/><path d="m96 32a8 8 0 0 0 8-8v-8a8 8 0 0 0 -16 0v8a8 8 0 0 0 8 8z"/><path d="m88 152v8a8 8 0 0 0 16 0v-8a8 8 0 0 0 -16 0z"/><path d="m152 88a8 8 0 0 0 8 8h8a8 8 0 0 0 0-16h-8a8 8 0 0 0 -8 8z"/><path d="m24 96h8a8 8 0 0 0 0-16h-8a8 8 0 0 0 0 16z"/><path d="m141.255 50.745a7.974 7.974 0 0 0 5.657-2.343l5.657-5.657a8 8 0 0 0 -11.314-11.314l-5.655 5.657a8 8 0 0 0 5.657 13.657z"/><path d="m45.088 127.6-5.657 5.657a8 8 0 0 0 11.314 11.314l5.657-5.657a8 8 0 1 0 -11.314-11.314z"/><path d="m146.912 127.6a8 8 0 1 0 -11.312 11.312l5.657 5.657a8 8 0 0 0 11.314-11.314z"/><path d="m45.088 48.4a8 8 0 1 0 11.312-11.312l-5.657-5.657a8 8 0 0 0 -11.312 11.314z"/></g></g></svg>