<?xml version="1.0" encoding="iso-8859-1"?>
<!-- Generator: Adobe Illustrator 19.0.0, SVG Export Plug-In . SVG Version: 6.00 Build 0)  -->
<svg version="1.1" id="Capa_1" xmlns="http://www.w3.org/2000/svg" xmlns:xlink="http://www.w3.org/1999/xlink" x="0px" y="0px"
	 viewBox="0 0 512 512" style="enable-background:new 0 0 512 512;" xml:space="preserve">
<rect x="7.604" y="76.04" style="fill:#FFFFFF;" width="496.792" height="359.921"/>
<rect x="38.02" y="106.455" style="fill:#00E2F0;" width="435.96" height="299.089"/>
<polygon style="fill:#00C6DA;" points="358.508,224.677 219.735,278.647 188.404,227.534 38.02,345.317 38.02,405.545 
	473.98,405.545 473.98,341.237 "/>
<polygon style="fill:#00C37A;" points="211.3,303.684 183.002,257.521 38.02,371.073 "/>
<polygon style="fill:#60DC4D;" points="353.464,248.396 38.02,371.073 38.02,405.545 473.98,405.545 473.98,371.073 
	474.994,371.073 "/>
<rect x="38.02" y="371.073" style="fill:#00C37A;" width="435.96" height="34.471"/>
<circle style="fill:#FDD93B;" cx="230.653" cy="172.356" r="36.499"/>
<path style="fill:#F5A800;" d="M230.653,191.62c-17.188,0-31.592-11.883-35.466-27.881c-0.669,2.764-1.033,5.648-1.033,8.618
	c0,20.158,16.341,36.499,36.499,36.499s36.499-16.341,36.499-36.499c0-2.97-0.363-5.854-1.033-8.618
	C262.245,179.736,247.841,191.62,230.653,191.62z"/>
<g>
	<path style="fill:#FFFFFF;" d="M150.558,173.37h-18.25c-8.399,0-15.208-6.809-15.208-15.208c0-8.399-6.809-15.208-15.208-15.208
		H38.02v30.416h32.444c8.399,0,15.208,6.809,15.208,15.208c0,8.399,6.809,15.208,15.208,15.208h49.679
		c8.399,0,15.208-6.809,15.208-15.208C165.766,180.179,158.957,173.37,150.558,173.37z"/>
	<path style="fill:#FFFFFF;" d="M473.98,173.37h-32.444c-8.399,0-15.208-6.809-15.208-15.208c0-8.399-6.809-15.208-15.208-15.208
		H310.749c-8.399,0-15.208,6.809-15.208,15.208c0,8.399,6.809,15.208,15.208,15.208h68.943c8.399,0,15.208,6.809,15.208,15.208
		c0,8.399,6.809,15.208,15.208,15.208h63.873V173.37z"/>
	<path style="fill:#FFFFFF;" d="M221.095,338.675l-5.216-14.286l13.645-4.981l5.216,14.286L221.095,338.675z M249.025,328.479
		l-5.216-14.286l71.429-26.078l5.216,14.286L249.025,328.479z"/>
</g>
<path d="M0,68.436v375.129h512V68.436H0z M496.792,428.356H15.208V83.644h481.584V428.356z"/>
<rect x="169.323" y="309.499" transform="matrix(0.3625 0.932 -0.932 0.3625 408.3272 37.2617)" width="15.208" height="15.208"/>
<rect x="112.634" y="331.543" transform="matrix(0.3625 0.932 -0.932 0.3625 392.7327 104.1486)" width="15.208" height="15.208"/>
<rect x="140.97" y="320.527" transform="matrix(0.3624 0.932 -0.932 0.3624 400.5536 70.7404)" width="15.208" height="15.208"/>
<path d="M230.653,216.459c24.318,0,44.103-19.785,44.103-44.103s-19.785-44.103-44.103-44.103s-44.103,19.785-44.103,44.103
	S206.335,216.459,230.653,216.459z M230.653,143.461c15.933,0,28.895,12.962,28.895,28.895s-12.962,28.895-28.895,28.895
	s-28.895-12.962-28.895-28.895S214.721,143.461,230.653,143.461z"/>
<path d="M78.067,188.578c0,12.579,10.234,22.812,22.812,22.812h49.679c12.578,0,22.812-10.233,22.812-22.812
	c0-12.579-10.234-22.812-22.812-22.812h-18.25c-4.193,0-7.604-3.411-7.604-7.604c0-12.579-10.234-22.812-22.812-22.812h-44.61
	v15.208h44.61c4.193,0,7.604,3.411,7.604,7.604c0,12.579,10.234,22.812,22.812,22.812h18.25c4.193,0,7.604,3.411,7.604,7.604
	c0,4.193-3.411,7.604-7.604,7.604h-49.679c-4.193,0-7.604-3.411-7.604-7.604c0-12.579-10.234-22.812-22.812-22.812h-13.18v15.208
	h13.18C74.657,180.974,78.067,184.385,78.067,188.578z"/>
<path d="M310.749,180.974h68.943c4.193,0,7.604,3.411,7.604,7.604c0,12.579,10.234,22.812,22.812,22.812h44.61v-15.208h-44.61
	c-4.193,0-7.604-3.411-7.604-7.604c0-12.579-10.234-22.812-22.812-22.812h-68.943c-4.193,0-7.604-3.411-7.604-7.604
	s3.411-7.604,7.604-7.604h100.372c4.193,0,7.604,3.411,7.604,7.604c0,12.579,10.234,22.812,22.812,22.812h13.18v-15.208h-13.18
	c-4.193,0-7.604-3.411-7.604-7.604c0-12.579-10.234-22.812-22.812-22.812H310.749c-12.578,0-22.812,10.233-22.812,22.812
	S298.171,180.974,310.749,180.974z"/>
<path d="M481.584,98.851H30.416v314.297h451.168V98.851z M466.376,114.059v237.51L355.355,239.501l-140.892,54.793l-29.435-48.02
	L45.624,355.459V114.059H466.376z M45.624,397.941v-23.164l135.353-106.011l27.16,44.308l143.435-55.783l114.805,115.888v24.762
	H45.624z"/>
<g>
</g>
<g>
</g>
<g>
</g>
<g>
</g>
<g>
</g>
<g>
</g>
<g>
</g>
<g>
</g>
<g>
</g>
<g>
</g>
<g>
</g>
<g>
</g>
<g>
</g>
<g>
</g>
<g>
</g>
</svg>
