<svg id="color" enable-background="new 0 0 24 24" height="512" viewBox="0 0 24 24" width="512" xmlns="http://www.w3.org/2000/svg"><g><g><path d="m14.04 10.171v.721c0 .609-.5 1.109-1.119 1.109h-1.841c-.54 0-1.119-.399-1.119-1.29v-.54z" fill="#607d8b"/></g></g><g><g><path d="m16.501 4.472c0 1.35-.601 2.609-1.65 3.46-.42.34-.69.779-.78 1.239-.02.11-.03.23-.03.341v.659h-4.08v-.76l-.021-.24c-.07-.449-.32-.869-.729-1.19-1.11-.87-1.74-2.18-1.71-3.6.05-2.381 2.039-4.351 4.43-4.381 1.21-.029 2.37.44 3.24 1.301.859.841 1.33 1.971 1.33 3.171z" fill="#ffc107"/></g></g><g><g><path d="m12 10.171h-2.039v.54c0 .891.579 1.29 1.119 1.29h.92z" fill="#546d79"/></g></g><g><g><path d="m12 0c-.023 0-.046 0-.069.001-2.391.03-4.38 2-4.43 4.381-.03 1.42.6 2.729 1.71 3.6.409.32.659.74.729 1.189l.021.24v.76h2.039z" fill="#dea806"/></g></g><g><g><path d="m18.5 17c1.654 0 3-1.346 3-3s-1.346-3-3-3-3 1.346-3 3 1.346 3 3 3z" fill="#4caf50"/></g></g><g><g><path d="m21.25 19h-5.5c-1.517 0-2.75 1.233-2.75 2.75v1.5c0 .414.336.75.75.75h9.5c.414 0 .75-.336.75-.75v-1.5c0-1.517-1.233-2.75-2.75-2.75z" fill="#4caf50"/></g></g><g><g><path d="m18.5 11c-1.654 0-3 1.346-3 3s1.346 3 3 3z" fill="#429846"/></g></g><g><g><path d="m18.5 19h-2.75c-1.517 0-2.75 1.233-2.75 2.75v1.5c0 .414.336.75.75.75h4.75z" fill="#429846"/></g></g><g><g><path d="m5.5 17c1.654 0 3-1.346 3-3s-1.346-3-3-3-3 1.346-3 3 1.346 3 3 3z" fill="#2196f3"/></g></g><g><g><path d="m8.25 19h-5.5c-1.517 0-2.75 1.233-2.75 2.75v1.5c0 .414.336.75.75.75h9.5c.414 0 .75-.336.75-.75v-1.5c0-1.517-1.233-2.75-2.75-2.75z" fill="#2196f3"/></g></g><g><g><path d="m5.5 11c-1.654 0-3 1.346-3 3s1.346 3 3 3z" fill="#1d83d4"/></g></g><g><g><path d="m5.5 19h-2.75c-1.517 0-2.75 1.233-2.75 2.75v1.5c0 .414.336.75.75.75h4.75z" fill="#1d83d4"/></g></g></svg>